<svg xmlns="http://www.w3.org/2000/svg" xmlns:xlink="http://www.w3.org/1999/xlink" width="44" height="44" viewBox="0 0 44 44">
  <defs>
    <clipPath id="clip-path">
      <rect id="Rectangle_356" data-name="Rectangle 356" width="44" height="44" transform="translate(0 -20)" fill="#707070"/>
    </clipPath>
  </defs>
  <g id="icon_playback" transform="translate(0 20)" clip-path="url(#clip-path)">
    <path id="Path_449" data-name="Path 449" d="M14.442,6.936,10.759,4.8A1.817,1.817,0,0,0,8.028,6.374V10.65a1.814,1.814,0,0,0,2.729,1.578l3.685-2.139a1.824,1.824,0,0,0,0-3.153m-4.414,3.4V6.686l3.146,1.827ZM18.685,0H3.576A3.579,3.579,0,0,0,0,3.575v9.874a3.578,3.578,0,0,0,3.576,3.575H18.685a3.578,3.578,0,0,0,3.575-3.575V3.575A3.579,3.579,0,0,0,18.685,0M20.26,13.449a1.577,1.577,0,0,1-1.575,1.575H3.576A1.578,1.578,0,0,1,2,13.449V3.575A1.578,1.578,0,0,1,3.576,2H18.685A1.577,1.577,0,0,1,20.26,3.575Zm1,6.791H10.229a1,1,0,0,0,0,2H21.26a1,1,0,0,0,0-2M5.937,18.565A2.718,2.718,0,0,0,3.43,20.24H1a1,1,0,0,0,0,2H3.4a2.713,2.713,0,1,0,2.534-3.675m0,3.435a.717.717,0,1,1,.717-.717A.716.716,0,0,1,5.937,22" transform="translate(11 -10)" fill="#707070"/>
  </g>
</svg>
